<mxfile host="65bd71144e">
    <diagram id="SxJ7FFy2VsVx5GpJ9rM3" name="Página-1">
        <mxGraphModel dx="1374" dy="756" grid="1" gridSize="10" guides="1" tooltips="1" connect="1" arrows="1" fold="1" page="1" pageScale="1" pageWidth="827" pageHeight="1169" math="0" shadow="0">
            <root>
                <mxCell id="0"/>
                <mxCell id="1" parent="0"/>
                <mxCell id="24" style="edgeStyle=none;html=1;" edge="1" parent="1" source="2" target="11">
                    <mxGeometry relative="1" as="geometry"/>
                </mxCell>
                <mxCell id="2" value="Usuario&lt;br&gt;" style="shape=umlActor;verticalLabelPosition=bottom;verticalAlign=top;html=1;" vertex="1" parent="1">
                    <mxGeometry x="70" y="340" width="30" height="60" as="geometry"/>
                </mxCell>
                <mxCell id="9" value="ref" style="shape=umlFrame;tabPosition=left;html=1;boundedLbl=1;labelInHeader=1;width=50;height=30;" vertex="1" parent="1">
                    <mxGeometry x="140" y="50" width="1840" height="660" as="geometry"/>
                </mxCell>
                <mxCell id="11" value="Introduce primer número" style="ellipse;" vertex="1" parent="9">
                    <mxGeometry x="65.92" y="293.06" width="204.08" height="41.87" as="geometry"/>
                </mxCell>
                <mxCell id="19" value="Se muestra número" style="ellipse;whiteSpace=wrap;html=1;" vertex="1" parent="9">
                    <mxGeometry x="369.9987951807229" y="285.67" width="159.39277108433737" height="59.1" as="geometry"/>
                </mxCell>
                <mxCell id="20" value="Suma" style="ellipse;whiteSpace=wrap;html=1;" vertex="1" parent="9">
                    <mxGeometry x="686.998313253012" y="80" width="202.84337349397592" height="78.81" as="geometry"/>
                </mxCell>
                <mxCell id="21" value="Resta" style="ellipse;whiteSpace=wrap;html=1;" vertex="1" parent="9">
                    <mxGeometry x="686.998313253012" y="214.25" width="202.84337349397592" height="78.81" as="geometry"/>
                </mxCell>
                <mxCell id="22" value="Multiplicación" style="ellipse;whiteSpace=wrap;html=1;" vertex="1" parent="9">
                    <mxGeometry x="687.0031325301205" y="320" width="195.63855421686748" height="78.81" as="geometry"/>
                </mxCell>
                <mxCell id="23" value="División" style="ellipse;whiteSpace=wrap;html=1;" vertex="1" parent="9">
                    <mxGeometry x="686.998313253012" y="430" width="202.84337349397592" height="78.81" as="geometry"/>
                </mxCell>
                <mxCell id="25" value="&amp;lt;&amp;lt;extend&amp;gt;&amp;gt;" style="html=1;verticalAlign=bottom;labelBackgroundColor=none;endArrow=open;endFill=0;dashed=1;exitX=1;exitY=0.5;exitDx=0;exitDy=0;entryX=0;entryY=0.5;entryDx=0;entryDy=0;" edge="1" parent="9" source="19" target="20">
                    <mxGeometry width="160" relative="1" as="geometry">
                        <mxPoint x="429.8726500909642" y="325.0746268656717" as="sourcePoint"/>
                        <mxPoint x="728.9144936325044" y="325.0746268656717" as="targetPoint"/>
                    </mxGeometry>
                </mxCell>
                <mxCell id="27" value="&amp;lt;&amp;lt;extend&amp;gt;&amp;gt;" style="html=1;verticalAlign=bottom;labelBackgroundColor=none;endArrow=open;endFill=0;dashed=1;exitX=1;exitY=0.5;exitDx=0;exitDy=0;entryX=0;entryY=0.5;entryDx=0;entryDy=0;" edge="1" parent="9" source="19" target="22">
                    <mxGeometry width="160" relative="1" as="geometry">
                        <mxPoint x="429.8726500909642" y="325.0746268656717" as="sourcePoint"/>
                        <mxPoint x="728.9144936325044" y="325.0746268656717" as="targetPoint"/>
                    </mxGeometry>
                </mxCell>
                <mxCell id="28" value="&amp;lt;&amp;lt;extend&amp;gt;&amp;gt;" style="html=1;verticalAlign=bottom;labelBackgroundColor=none;endArrow=open;endFill=0;dashed=1;exitX=1;exitY=0.5;exitDx=0;exitDy=0;entryX=0;entryY=0.5;entryDx=0;entryDy=0;" edge="1" parent="9" source="19" target="23">
                    <mxGeometry width="160" relative="1" as="geometry">
                        <mxPoint x="429.8726500909642" y="325.0746268656717" as="sourcePoint"/>
                        <mxPoint x="728.9144936325044" y="325.0746268656717" as="targetPoint"/>
                    </mxGeometry>
                </mxCell>
                <mxCell id="29" value="&amp;lt;&amp;lt;extend&amp;gt;&amp;gt;" style="html=1;verticalAlign=bottom;labelBackgroundColor=none;endArrow=open;endFill=0;dashed=1;exitX=1;exitY=0.5;exitDx=0;exitDy=0;entryX=0;entryY=0.5;entryDx=0;entryDy=0;" edge="1" parent="9" source="19" target="21">
                    <mxGeometry width="160" relative="1" as="geometry">
                        <mxPoint x="1237.0657439446363" y="334.9253731343284" as="sourcePoint"/>
                        <mxPoint x="1578.3252595155714" y="334.9253731343284" as="targetPoint"/>
                    </mxGeometry>
                </mxCell>
                <mxCell id="30" value="Muestra número" style="ellipse;whiteSpace=wrap;html=1;" vertex="1" parent="9">
                    <mxGeometry x="989.9954216867468" y="265.96000000000004" width="138.84240963855422" height="78.81" as="geometry"/>
                </mxCell>
                <mxCell id="31" value="&amp;lt;&amp;lt;include&amp;gt;&amp;gt;" style="html=1;verticalAlign=bottom;labelBackgroundColor=none;endArrow=open;endFill=0;dashed=1;exitX=1;exitY=0.5;exitDx=0;exitDy=0;entryX=0;entryY=0.5;entryDx=0;entryDy=0;" edge="1" parent="9" source="20" target="30">
                    <mxGeometry width="160" relative="1" as="geometry">
                        <mxPoint x="1050.489279824079" y="325.0746268656717" as="sourcePoint"/>
                        <mxPoint x="1321.583287520616" y="325.0746268656717" as="targetPoint"/>
                    </mxGeometry>
                </mxCell>
                <mxCell id="32" value="&amp;lt;&amp;lt;extend&amp;gt;&amp;gt;" style="html=1;verticalAlign=bottom;labelBackgroundColor=none;endArrow=open;endFill=0;dashed=1;exitX=1.036;exitY=0.625;exitDx=0;exitDy=0;exitPerimeter=0;entryX=0;entryY=0.5;entryDx=0;entryDy=0;" edge="1" parent="9" source="21" target="30">
                    <mxGeometry width="160" relative="1" as="geometry">
                        <mxPoint x="1050.489279824079" y="325.0746268656717" as="sourcePoint"/>
                        <mxPoint x="1321.583287520616" y="325.0746268656717" as="targetPoint"/>
                    </mxGeometry>
                </mxCell>
                <mxCell id="33" value="&amp;lt;&amp;lt;include&amp;gt;&amp;gt;" style="html=1;verticalAlign=bottom;labelBackgroundColor=none;endArrow=open;endFill=0;dashed=1;exitX=1;exitY=0.5;exitDx=0;exitDy=0;entryX=0;entryY=0.625;entryDx=0;entryDy=0;entryPerimeter=0;" edge="1" parent="9" source="22" target="30">
                    <mxGeometry width="160" relative="1" as="geometry">
                        <mxPoint x="1050.489279824079" y="325.0746268656717" as="sourcePoint"/>
                        <mxPoint x="1321.583287520616" y="325.0746268656717" as="targetPoint"/>
                    </mxGeometry>
                </mxCell>
                <mxCell id="35" value="&amp;lt;&amp;lt;include&amp;gt;&amp;gt;" style="html=1;verticalAlign=bottom;labelBackgroundColor=none;endArrow=open;endFill=0;dashed=1;exitX=1;exitY=0.5;exitDx=0;exitDy=0;entryX=0.008;entryY=0.625;entryDx=0;entryDy=0;entryPerimeter=0;" edge="1" parent="9" source="23" target="30">
                    <mxGeometry width="160" relative="1" as="geometry">
                        <mxPoint x="1050.489279824079" y="325.0746268656717" as="sourcePoint"/>
                        <mxPoint x="1321.583287520616" y="325.0746268656717" as="targetPoint"/>
                    </mxGeometry>
                </mxCell>
                <mxCell id="37" value="Introduce segundo número" style="ellipse;whiteSpace=wrap;html=1;" vertex="1" parent="9">
                    <mxGeometry x="1179.999518072289" y="264.77000000000004" width="122.8255421686747" height="78.81" as="geometry"/>
                </mxCell>
                <mxCell id="36" value="&amp;lt;&amp;lt;include&amp;gt;&amp;gt;" style="html=1;verticalAlign=bottom;labelBackgroundColor=none;endArrow=open;endFill=0;dashed=1;exitX=1;exitY=0.5;exitDx=0;exitDy=0;" edge="1" parent="9" source="30" target="37">
                    <mxGeometry width="160" relative="1" as="geometry">
                        <mxPoint x="771.1764705882354" y="325.0746268656717" as="sourcePoint"/>
                        <mxPoint x="1434.1176470588234" y="305.3731343283583" as="targetPoint"/>
                    </mxGeometry>
                </mxCell>
                <mxCell id="13" value="&amp;lt;&amp;lt;include&amp;gt;&amp;gt;" style="html=1;verticalAlign=bottom;labelBackgroundColor=none;endArrow=open;endFill=0;dashed=1;exitX=1;exitY=0.5;exitDx=0;exitDy=0;entryX=0;entryY=0.5;entryDx=0;entryDy=0;" edge="1" parent="9" source="11" target="19">
                    <mxGeometry width="160" relative="1" as="geometry">
                        <mxPoint x="389.48905109489044" y="340" as="sourcePoint"/>
                        <mxPoint x="590.948905109489" y="329" as="targetPoint"/>
                    </mxGeometry>
                </mxCell>
                <mxCell id="39" value="Igual" style="ellipse;whiteSpace=wrap;html=1;" vertex="1" parent="9">
                    <mxGeometry x="1369.9975903614456" y="263.58000000000004" width="133.0120481927711" height="80" as="geometry"/>
                </mxCell>
                <mxCell id="40" value="&amp;lt;&amp;lt;include&amp;gt;&amp;gt;" style="html=1;verticalAlign=bottom;labelBackgroundColor=none;endArrow=open;endFill=0;dashed=1;exitX=1;exitY=0.5;exitDx=0;exitDy=0;" edge="1" parent="9" source="37" target="39">
                    <mxGeometry width="160" relative="1" as="geometry">
                        <mxPoint x="1186.0240963855422" y="330" as="sourcePoint"/>
                        <mxPoint x="1363.3734939759036" y="330" as="targetPoint"/>
                    </mxGeometry>
                </mxCell>
                <mxCell id="41" value="Muestra resultado" style="ellipse;whiteSpace=wrap;html=1;" vertex="1" parent="9">
                    <mxGeometry x="1580" y="263.58" width="120" height="80" as="geometry"/>
                </mxCell>
                <mxCell id="42" value="&amp;lt;&amp;lt;include&amp;gt;&amp;gt;" style="html=1;verticalAlign=bottom;labelBackgroundColor=none;endArrow=open;endFill=0;dashed=1;exitX=1;exitY=0.5;exitDx=0;exitDy=0;" edge="1" parent="9" source="39" target="41">
                    <mxGeometry width="160" relative="1" as="geometry">
                        <mxPoint x="1070" y="330" as="sourcePoint"/>
                        <mxPoint x="1230" y="330" as="targetPoint"/>
                    </mxGeometry>
                </mxCell>
            </root>
        </mxGraphModel>
    </diagram>
</mxfile>